<svg width="164" height="45" xmlns="http://www.w3.org/2000/svg">
  <g fill-rule="nonzero" fill="none">
    <path d="M3.135 8.957l14.23-8.13a6.431 6.431 0 016.311 0l14.19 8.13A6.233 6.233 0 0141 14.35v16.3a6.184 6.184 0 01-3.135 5.393l-14.189 8.13a6.431 6.431 0 01-6.31 0l-14.231-8.13A6.233 6.233 0 010 30.65V14.39c0-2.246 1.196-4.289 3.135-5.433" fill="#000"/>
    <g fill="#212121">
      <path d="M53.336 39.771c-.328 0-.738-.076-1.23-.152-.491-.114-.82-.229-.942-.38l.246-.8c.246.113.533.228.901.304.37.076.697.152 1.025.152.533 0 .984-.076 1.27-.266.287-.19.451-.458.451-.762 0-.229-.082-.42-.205-.61-.163-.19-.368-.343-.655-.495-.287-.152-.656-.305-1.148-.533a5.946 5.946 0 01-1.147-.572 2.51 2.51 0 01-.656-.647c-.164-.267-.205-.572-.205-.915 0-.343.123-.685.328-.952.205-.267.492-.495.901-.686.37-.152.82-.228 1.353-.228.369 0 .738.038 1.066.152.368.076.696.19.983.343l-.369.8c-.287-.114-.533-.229-.778-.267a2.916 2.916 0 00-.861-.114c-.45 0-.82.076-1.107.228-.287.153-.41.381-.41.686 0 .229.083.457.205.61.164.19.37.343.615.457.287.152.656.305 1.189.533.696.305 1.188.61 1.516.914.328.305.492.724.492 1.22 0 .38-.123.723-.328 1.028-.205.305-.533.533-.984.686-.45.19-.942.266-1.516.266zM58.541 34.514h1.025l.327.762h-1.352v2.743c0 .267.082.495.205.648.123.152.328.228.615.228.123 0 .328-.038.532-.114l.287.762c-.123.038-.246.114-.45.152-.164.038-.328.076-.492.076-.533 0-.984-.152-1.312-.419-.328-.266-.492-.685-.492-1.18v-2.896h-.778v-.762h.778V33.22l1.107-.229v1.524zM63.5 39.771c-.574 0-1.066-.114-1.475-.342-.41-.229-.738-.534-.943-.953a3.18 3.18 0 01-.328-1.447c0-.534.123-.99.328-1.41.205-.419.574-.724.984-.952.41-.229.901-.343 1.475-.343.574 0 1.066.114 1.475.343.41.228.738.533.984.952.246.42.328.876.328 1.448 0 .533-.123.99-.328 1.41a2.538 2.538 0 01-.984.952c-.45.228-.983.342-1.516.342zm1.68-2.704c0-.572-.164-.99-.45-1.334-.287-.343-.697-.533-1.189-.533-.492 0-.902.19-1.23.533-.286.343-.45.8-.45 1.296 0 .571.164.99.45 1.333.287.343.697.533 1.189.533.492 0 .902-.19 1.23-.533.286-.343.45-.762.45-1.295zM69.402 35.543c-.37.19-.697.38-.984.647v3.429h-1.107v-5.143h.615l.37.838c.245-.19.573-.38.942-.571.369-.19.655-.267.942-.267l.246.838c-.328-.038-.656.076-1.024.229zM73.541 34.324c.82 0 1.393.266 1.803.762.41.495.615 1.143.615 1.943v.266h-3.934c.04.495.205.915.532 1.181.287.305.738.42 1.353.42.287 0 .533-.039.779-.115.204-.076.532-.19.901-.343l.328.762c-.656.381-1.352.571-2.008.571-.984 0-1.721-.228-2.254-.723-.533-.496-.779-1.143-.779-1.981 0-.534.123-.99.328-1.41.205-.419.533-.724.943-.952.368-.267.82-.381 1.393-.381zm-.041.876c-.41 0-.738.114-.984.381-.246.229-.41.571-.45 1.029h2.868c-.204-.953-.655-1.41-1.434-1.41z"/>
    </g>
    <g fill="#212121">
      <path d="M61.452 27.917L58.287 16.5l-3.082 11.417h-1.808L49.205 13.75l1.973-.292 3.164 11.75 3-11.583h1.932l3.123 11.583 3-11.583h1.931L63.26 27.917zM73.164 28.167c-1.028 0-1.89-.209-2.63-.667a4.717 4.717 0 01-1.726-1.875c-.411-.833-.617-1.75-.617-2.833 0-1.042.206-2 .617-2.792.41-.833.986-1.458 1.767-1.875.78-.458 1.643-.667 2.67-.667 1.028 0 1.891.209 2.63.667A4.717 4.717 0 0177.603 20c.41.833.616 1.75.616 2.833 0 1.042-.205 2-.616 2.792-.411.833-.987 1.458-1.767 1.875-.781.458-1.644.667-2.671.667zm3.04-5.334c0-1.083-.246-2-.78-2.666-.534-.667-1.233-1-2.178-1-.904 0-1.644.333-2.178 1.041-.534.667-.822 1.542-.822 2.584 0 1.083.246 2 .78 2.666.535.667 1.233 1 2.179 1 .904 0 1.643-.333 2.178-1.041.534-.667.822-1.542.822-2.584zM85.286 19.083c-.452 0-.986.167-1.52.459-.534.291-1.11.708-1.644 1.166v7.209H80.15V17.708h1.397l.37 1.334c.534-.5 1.15-.875 1.808-1.209a4.432 4.432 0 012.013-.458c1.11 0 1.89.333 2.425 1.042.534.708.78 1.625.78 2.791v6.75h-1.972v-6.583c0-.75-.123-1.292-.37-1.708-.246-.417-.698-.584-1.315-.584zM99.916 27.917h-1.15l-.412-.792a5.1 5.1 0 01-1.397.792c-.493.166-.945.291-1.315.291-1.027 0-1.931-.208-2.67-.666a4.57 4.57 0 01-1.727-1.917c-.41-.833-.616-1.792-.616-2.875 0-1.042.205-1.958.616-2.792.411-.833.986-1.416 1.767-1.875.781-.458 1.644-.666 2.63-.666.288 0 .617.041 1.028.166.41.125.78.292 1.15.5v-4.791l2.014-.209v14.834h.082zm-4.192-1.459c.452 0 .863-.083 1.192-.208.329-.125.658-.375.986-.667v-5.625a3.244 3.244 0 00-.986-.625 3.575 3.575 0 00-1.192-.208c-.945 0-1.643.333-2.178 1-.534.667-.78 1.5-.78 2.542 0 1.125.246 2.041.78 2.708.494.75 1.233 1.083 2.178 1.083zM106.82 17.417c1.438 0 2.548.5 3.287 1.5.74 1 1.11 2.25 1.11 3.791v.542h-7.15c.082 1 .41 1.792.945 2.375.534.583 1.356.875 2.424.875.535 0 .987-.083 1.398-.208.41-.125.945-.375 1.643-.709l.617 1.459c-1.233.75-2.425 1.125-3.658 1.125-1.767 0-3.123-.5-4.027-1.459-.945-.958-1.397-2.291-1.397-3.916 0-1.042.205-2 .575-2.792a3.929 3.929 0 011.685-1.875c.699-.458 1.562-.708 2.548-.708zm-.082 1.75c-.781 0-1.356.25-1.808.708-.452.458-.74 1.167-.822 2h5.178c-.288-1.792-1.11-2.708-2.548-2.708zM116.847 19.875c-.658.375-1.274.792-1.767 1.292v6.75h-1.973V17.708h1.11l.657 1.667c.452-.417 1.028-.792 1.685-1.125.658-.333 1.192-.542 1.685-.542l.452 1.625c-.575 0-1.192.167-1.849.542z"/>
      <g>
        <path d="M126.38 13.375c.494 0 1.11.083 1.809.25.74.167 1.356.375 1.89.708l-.821 1.959-.535-.167c-.534-.167-.986-.292-1.274-.333-.328-.084-.698-.084-1.191-.084-.74 0-1.439.209-2.014.625-.575.417-1.068 1.042-1.397 1.792-.329.792-.493 1.708-.493 2.75 0 .958.164 1.792.452 2.583.287.792.74 1.417 1.315 1.834.575.458 1.233.666 2.013.666a7.48 7.48 0 003.082-.666l1.028 2c-.534.291-1.15.5-1.932.666-.74.167-1.438.25-2.054.25-1.439 0-2.63-.333-3.658-.958-1.027-.625-1.767-1.542-2.301-2.625a9.31 9.31 0 01-.78-3.792c0-1.458.287-2.75.821-3.875.575-1.125 1.356-2.041 2.383-2.666 1.11-.625 2.302-.917 3.658-.917zM136.285 20.458c-.658.334-1.315.75-1.89 1.292v6.208h-2.713V17.75h1.397l.904 1.708a10.116 10.116 0 011.685-1.166c.658-.334 1.233-.542 1.726-.542l.534 2.208c-.41 0-.986.167-1.643.5zM143.189 20c-.453 0-.946.083-1.521.208a7.91 7.91 0 00-1.397.459l-.74-2.292c.37-.25.945-.458 1.726-.625.78-.208 1.438-.292 1.89-.292.822 0 1.52.167 2.22.5a4.616 4.616 0 011.602 1.334c.411.583.576 1.208.576 1.916v6.709h-1.768l-.452-1.084c-.863.917-1.726 1.334-2.67 1.334-1.192 0-2.097-.292-2.713-.875-.616-.584-.904-1.417-.904-2.417 0-1.042.329-1.833 1.027-2.417.699-.583 1.603-.833 2.795-.833h1.972c0-.5-.164-.917-.452-1.208-.287-.25-.657-.417-1.191-.417zm-.37 3.5c-.452 0-.781.125-1.069.417-.287.291-.41.625-.41 1 0 .291.123.583.37.791.246.209.533.334.903.334.822 0 1.562-.334 2.22-1V23.5h-2.014zM150.421 19.875h-1.561v-2.083h1.561V17c0-1.208.329-2.125 1.028-2.792.698-.666 1.643-1 2.876-1 .329 0 .658.084 1.069.209.41.125.698.291.945.458l-.781 1.958c-.452-.166-.822-.291-1.11-.291-.452 0-.78.166-1.027.5-.205.333-.329.791-.329 1.333v.417h1.89l.864 2.083h-2.754v12.917h-2.712V19.875h.041zM160.571 17.792h1.809l.822 2.083h-2.672v4.333c0 .542.124 1 .37 1.334.247.333.617.5 1.11.5.37 0 .74-.084 1.11-.292l.78 1.958c-.205.167-.534.334-.904.459s-.78.208-1.11.208c-1.273 0-2.26-.333-2.958-.958-.699-.625-1.069-1.542-1.069-2.709v-4.833h-1.356v-2.083h1.356v-2.417l2.671-.5v2.917h.041z"/>
      </g>
    </g>
    <path d="M28.877 17.127l-5.708-7.965c-.041-.083-.123-.125-.205-.166l-1.643-.913A.755.755 0 0021.034 8l-2.177.083a.583.583 0 00-.492.249l-4.722 7.26c-.042.083-.083.166-.083.25L12 29.2c0 .083 0 .208.041.29l2.259 5.477c.082.166.205.29.328.332l4.6 1.66a.367.367 0 00.204.041h.082l6.242-1.12a.441.441 0 00.287-.125l2.71-2.281a.67.67 0 00.206-.457L29 17.501a.674.674 0 00-.123-.374zm-1.068.664l-2.423 3.32-2.956-3.237-.986-8.38.822.456 5.502 7.717.041.124zm-11.826 2.946h3.819l-.329 7.882-.287 7.095-3.901-1.41-.123-.25.821-13.317zm4.394-.166l1.807-2.116 1.026 1.12 1.93 2.116.246 13.069-5.625 1.037.493-11.907.123-3.32zm.493-11.368l.944 7.883.082.83-1.56 1.825-.37.415h-4.024l-1.273-3.61.041-.373 4.476-6.928 1.684-.042zm-6.365 8.63l.903 2.655-.78 12.322-1.478-3.61 1.355-11.367zm11.456 16.47l-.246-12.654 2.094-2.862v13.94l-1.848 1.576z" fill="#FFF"/>
  </g>
</svg>